<svg width="888.126" height="379.969" xmlns="http://www.w3.org/2000/svg" xmlns:xlink="http://www.w3.org/1999/xlink">
 <g>
  <title>background</title>
  <rect fill="none" id="canvas_background" height="381.969" width="890.126" y="-1" x="-1"/>
 </g>
 <g>
  <title>Layer 1</title>
  <polygon id="svg_1" points="355.21,131.909 328.526,310.189 378.893,310.189 405.577,131.909 " fill="#2240AE"/>
  <polygon id="svg_2" points="363.014,69.803 356.48,120.913 406.879,120.913 413.413,69.803 " fill="#F20202"/>
  <path id="svg_3" d="m126.114,309.095c11.399,-4.144 21.743,-9.99 30.741,-17.377c9.082,-7.452 16.734,-16.582 22.738,-27.137c5.222,-9.178 8.89,-19.282 10.94,-30.097c0.315,-1.663 0.598,-3.339 0.836,-5.034l15.322,-109.021l32.219,0c12.937,0 22.061,3.651 27.837,11.092c3.457,4.537 5.041,10.947 4.708,19.051c-0.426,10.217 -1.716,23.032 -3.832,38.09c-2.122,15.098 -4.518,28.485 -7.122,39.782c-2.222,9.618 -6.031,17.066 -11.276,22.091c-8.758,8.281 -19.606,12.309 -33.166,12.309l-21.665,0c-8.759,31.687 -46.125,50.625 -46.125,50.625l9.397,0l57.568,0c12.75,0 24.948,-1.918 36.258,-5.701c11.55,-3.864 22.015,-9.864 31.103,-17.833c7.741,-6.787 14.05,-14.42 18.75,-22.684c4.529,-7.955 8.133,-16.373 10.712,-25.019c2.485,-8.326 4.433,-17.018 5.786,-25.838l0.001,-0.007c1.305,-8.541 2.536,-16.924 3.659,-24.916c1.133,-8.054 2.229,-16.229 3.259,-24.304c1.07,-8.43 1.515,-16.806 1.323,-24.895c-0.203,-8.52 -1.53,-16.829 -3.945,-24.695c-2.552,-8.304 -6.941,-16.119 -13.05,-23.233c-7.223,-8.398 -16.425,-14.703 -27.353,-18.738c-10.43,-3.85 -22.238,-5.802 -35.095,-5.802l-32.836,0l-19.92,0l-34.356,0l-0.129,0l-22.394,159.336c-2.166,10.729 -6.663,19.023 -13.698,25.256c-7.84,6.951 -17.28,10.33 -28.857,10.33c-10.982,0 -18.842,-3.023 -24.036,-9.249c-5.299,-6.343 -7.04,-15.37 -5.322,-27.597l22.216,-158.076l-54.276,0l-22.041,156.837c-1.81,12.871 -1.142,24.896 1.982,35.741c3.166,11.002 8.433,20.55 15.648,28.371c7.156,7.768 16.191,13.896 26.854,18.211c10.47,4.238 22.143,6.387 34.695,6.387c12.291,0 24.259,-2.068 35.582,-6.135c0.119,-0.043 0.241,-0.078 0.36,-0.121z" fill="#2240AE"/>
  <g id="svg_4">
   <defs>
    <rect height="376.969" width="936.126" x="10" id="SVGID_1_"/>
   </defs>
   <clipPath id="SVGID_2_">
    <use id="svg_5" xlink:href="#SVGID_1_"/>
   </clipPath>
   <polygon id="svg_6" points="489.352,0 489.321,0.21 487.856,0 487.821,0.25 486.081,0    486.049,0.236 484.4,0 484.362,0.265 482.519,0 482.488,0.21 481.023,0 480.987,0.25 479.248,0 479.215,0.236 477.567,0    477.533,0.241 475.852,0 475.821,0.21 474.356,0 474.321,0.25 472.582,0 472.549,0.236 470.9,0 416.934,376.631 419.296,376.969    419.331,376.732 420.979,376.969 421.015,376.72 422.753,376.969 422.784,376.759 424.249,376.969 424.283,376.729    425.963,376.969 425.998,376.732 427.646,376.969 427.681,376.72 429.42,376.969 429.451,376.759 430.915,376.969 430.953,376.705    432.796,376.969 432.831,376.732 434.479,376.969 434.515,376.72 436.253,376.969 436.284,376.759 437.749,376.969 491.715,0.339     " fill="#F1C40F" clip-path="url(#SVGID_2_)"/>
  </g>
  <g id="svg_7">
   <path id="svg_8" d="m513.42,228.875c-0.445,0 -0.801,-0.356 -0.712,-0.89l10.414,-58.743c0.089,-0.534 0.444,-0.89 0.89,-0.89l22.519,0c11.303,0 17.355,5.963 17.355,15.309c0,15.13 -10.146,23.319 -24.031,23.319l-10.413,0c-0.356,0 -0.623,0.179 -0.623,0.534l-3.649,20.472c-0.089,0.533 -0.445,0.89 -0.979,0.89l-10.771,0l0,-0.001zm37.827,-43.167c0,-4.005 -2.67,-6.498 -7.299,-6.498l-9.612,0c-0.355,0 -0.534,0.178 -0.623,0.534l-2.848,15.842c0,0.356 0.089,0.534 0.444,0.534l9.613,0c5.964,0.001 10.325,-4.004 10.325,-10.412z" fill="#2240AE"/>
   <path id="svg_9" d="m566.463,211.341c0,-5.429 2.938,-23.675 6.053,-30.083c4.806,-9.702 12.816,-13.885 23.497,-13.885c11.393,0 19.136,6.319 19.136,18.513c0,5.43 -2.938,23.675 -6.052,30.084c-4.807,9.701 -12.729,13.885 -23.498,13.885c-11.393,-0.001 -19.136,-6.32 -19.136,-18.514zm31.33,0.267c2.047,-4.184 4.717,-20.204 4.717,-24.565c0,-5.251 -2.938,-8.544 -8.188,-8.544c-4.896,0 -8.366,2.759 -10.413,7.12c-2.137,4.183 -4.807,20.205 -4.807,24.565c0,5.252 3.026,8.545 8.188,8.545c4.896,0 8.366,-2.759 10.503,-7.121z" fill="#2240AE"/>
   <path id="svg_10" d="m618.794,228.875c-0.444,0 -0.801,-0.356 -0.712,-0.89l10.414,-58.743c0.089,-0.534 0.444,-0.89 0.89,-0.89l22.519,0c11.303,0 17.355,5.963 17.355,15.309c0,15.13 -10.146,23.319 -24.031,23.319l-10.413,0c-0.356,0 -0.623,0.179 -0.623,0.534l-3.649,20.472c-0.089,0.533 -0.445,0.89 -0.979,0.89l-10.771,0l0,-0.001zm37.827,-43.167c0,-4.005 -2.67,-6.498 -7.299,-6.498l-9.612,0c-0.355,0 -0.534,0.178 -0.623,0.534l-2.848,15.842c0,0.356 0.089,0.534 0.444,0.534l9.613,0c5.964,0.001 10.325,-4.004 10.325,-10.412z" fill="#2240AE"/>
   <path id="svg_11" d="m673.351,206.356l6.586,-37.114c0.089,-0.534 0.445,-0.89 0.89,-0.89l10.77,0c0.534,0 0.891,0.356 0.802,0.89l-6.676,37.827c-1.335,7.565 2.047,11.659 8.1,11.659c5.874,0 9.79,-2.759 11.393,-11.659l6.765,-37.827c0.089,-0.534 0.444,-0.89 0.979,-0.89l10.681,0c0.534,0 0.89,0.356 0.801,0.89l-6.764,38.005c-2.938,16.821 -11.571,22.607 -24.922,22.607c-13.977,0 -22.076,-8.456 -19.405,-23.498z" fill="#2240AE"/>
   <path id="svg_12" d="m735.293,169.242c0.09,-0.534 0.445,-0.89 0.979,-0.89l10.77,0c0.534,0 0.801,0.356 0.712,0.89l-8.455,47.974c-0.089,0.355 0.089,0.533 0.444,0.533l24.654,0c0.534,0 0.802,0.356 0.712,0.891l-1.69,9.346c-0.089,0.533 -0.445,0.89 -0.891,0.89l-36.848,0c-0.534,0 -0.89,-0.356 -0.801,-0.89l10.414,-58.744z" fill="#2240AE"/>
   <path id="svg_13" d="m766.709,227.985l30.528,-58.743c0.268,-0.534 0.712,-0.89 1.335,-0.89l10.77,0c0.623,0 0.891,0.356 0.979,0.89l9.346,58.743c0.089,0.533 -0.179,0.89 -0.623,0.89l-10.858,0c-0.623,0 -0.979,-0.267 -1.068,-0.89l-1.424,-10.859l-20.383,0l-5.251,10.859c-0.267,0.623 -0.534,0.89 -1.157,0.89l-11.748,0c-0.535,0 -0.713,-0.356 -0.446,-0.89zm37.649,-21.539l-2.76,-22.074l-0.267,0l-10.77,22.074l13.797,0z" fill="#2240AE"/>
   <path id="svg_14" d="m859.626,228.875c-0.712,0 -0.979,-0.267 -1.157,-0.89l-6.141,-22.43l-8.723,0c-0.356,0 -0.623,0.178 -0.623,0.534l-3.916,21.896c-0.09,0.533 -0.445,0.89 -0.891,0.89l-10.77,0c-0.534,0 -0.89,-0.356 -0.801,-0.89l10.413,-58.743c0.09,-0.534 0.445,-0.89 0.979,-0.89l22.963,0c10.77,0 17,6.052 17,14.953c0,9.88 -5.696,17.355 -13.974,20.56l6.942,23.942c0.267,0.534 -0.089,1.068 -0.712,1.068l-10.589,0zm5.696,-43.701c0,-3.738 -2.67,-5.963 -6.854,-5.963l-10.235,0c-0.355,0 -0.534,0.178 -0.623,0.534l-2.581,14.596c-0.089,0.356 0.089,0.534 0.445,0.534l10.235,0c5.252,-0.089 9.613,-3.56 9.613,-9.701z" fill="#2240AE"/>
  </g>
 </g>
</svg>