<svg width="331" height="51" viewBox="0 0 331 51" fill="none" xmlns="http://www.w3.org/2000/svg">
<path d="M81.6721 41.576C76.3921 41.576 72.2961 40.168 69.3841 37.352C66.4721 34.504 65.0161 30.232 65.0161 24.536C65.0161 18.84 66.4721 14.584 69.3841 11.768C72.2961 8.91997 76.3921 7.49597 81.6721 7.49597C86.9841 7.49597 91.0961 8.91997 94.0081 11.768C96.9201 14.584 98.3761 18.84 98.3761 24.536C98.3761 30.232 96.9201 34.504 94.0081 37.352C91.0961 40.168 86.9841 41.576 81.6721 41.576ZM81.6721 35.672C84.8081 35.672 87.1761 34.776 88.7761 32.984C90.4081 31.16 91.2241 28.584 91.2241 25.256V23.816C91.2241 20.488 90.4081 17.928 88.7761 16.136C87.1761 14.312 84.8081 13.4 81.6721 13.4C78.5361 13.4 76.1681 14.312 74.5681 16.136C72.9681 17.928 72.1681 20.488 72.1681 23.816V25.256C72.1681 28.584 72.9681 31.16 74.5681 32.984C76.1681 34.776 78.5361 35.672 81.6721 35.672Z" fill="#18233A"/>
<path d="M103.767 15.752H109.383L109.815 19.064H110.151C110.951 17.784 112.023 16.824 113.367 16.184C114.711 15.512 116.199 15.176 117.831 15.176C121.031 15.176 123.511 16.28 125.271 18.488C127.031 20.664 127.911 23.976 127.911 28.424C127.911 32.776 127.015 36.056 125.223 38.264C123.463 40.472 121.111 41.576 118.167 41.576C116.471 41.576 114.967 41.272 113.655 40.664C112.375 40.056 111.367 39.192 110.631 38.072H110.343V49.304H103.767V15.752ZM115.719 35.864C117.671 35.864 119.063 35.288 119.895 34.136C120.727 32.952 121.143 31.176 121.143 28.808V27.944C121.143 25.576 120.727 23.816 119.895 22.664C119.063 21.48 117.671 20.888 115.719 20.888C112.135 20.888 110.343 23.24 110.343 27.944V28.712C110.343 33.48 112.135 35.864 115.719 35.864Z" fill="#18233A"/>
<path d="M143.527 41.576C139.463 41.576 136.423 40.504 134.407 38.36C132.423 36.216 131.431 32.888 131.431 28.376C131.431 23.864 132.423 20.536 134.407 18.392C136.423 16.248 139.463 15.176 143.527 15.176C147.271 15.176 150.071 16.264 151.927 18.44C153.783 20.584 154.711 23.896 154.711 28.376V29.912H138.103C138.167 32.152 138.615 33.816 139.447 34.904C140.279 35.96 141.671 36.488 143.623 36.488C144.999 36.488 146.103 36.104 146.935 35.336C147.799 34.568 148.231 33.48 148.231 32.072H154.711C154.711 35.24 153.687 37.624 151.639 39.224C149.591 40.792 146.887 41.576 143.527 41.576ZM147.895 25.544C147.895 22.056 146.439 20.312 143.527 20.312C141.863 20.312 140.599 20.744 139.735 21.608C138.903 22.472 138.391 23.784 138.199 25.544H147.895Z" fill="#18233A"/>
<path d="M159.783 15.752H165.399L165.879 19.064H166.215C168.263 16.472 170.887 15.176 174.087 15.176C176.679 15.176 178.711 15.88 180.183 17.288C181.687 18.696 182.439 20.952 182.439 24.056V41H175.863V25.448C175.863 23.88 175.495 22.744 174.759 22.04C174.023 21.336 172.935 20.984 171.495 20.984C170.023 20.984 168.791 21.512 167.799 22.568C166.839 23.592 166.359 24.872 166.359 26.408V41H159.783V15.752Z" fill="#18233A"/>
<path d="M188.935 8.07197H202.567C207.591 8.07197 211.463 9.44797 214.183 12.2C216.935 14.92 218.311 19.032 218.311 24.536C218.311 30.04 216.935 34.168 214.183 36.92C211.463 39.64 207.591 41 202.567 41H188.935V8.07197ZM202.567 35.096C205.383 35.096 207.511 34.248 208.951 32.552C210.423 30.824 211.159 28.392 211.159 25.256V23.816C211.159 20.68 210.423 18.264 208.951 16.568C207.511 14.84 205.383 13.976 202.567 13.976H195.895V35.096H202.567Z" fill="#18233A"/>
<path d="M229.575 41.576C227.623 41.576 225.831 41.064 224.199 40.04C222.567 39.016 221.751 37.16 221.751 34.472C221.751 31.24 223.079 28.952 225.735 27.608C228.391 26.232 232.151 25.544 237.015 25.544V23.768C237.015 22.648 236.759 21.784 236.247 21.176C235.767 20.568 234.839 20.264 233.463 20.264C231.991 20.264 230.935 20.488 230.295 20.936C229.687 21.384 229.383 21.912 229.383 22.52V23.24H223.047C223.015 23.048 222.999 22.696 222.999 22.184C222.999 20.072 223.927 18.376 225.783 17.096C227.671 15.816 230.167 15.176 233.271 15.176C236.727 15.176 239.303 15.88 240.999 17.288C242.727 18.696 243.591 20.728 243.591 23.384V34.52C243.591 35.096 243.751 35.528 244.071 35.816C244.391 36.072 244.791 36.2 245.271 36.2H246.615V40.808C245.591 41.32 244.327 41.576 242.823 41.576C241.511 41.576 240.407 41.288 239.511 40.712C238.647 40.136 238.055 39.32 237.735 38.264H237.447C236.519 39.352 235.447 40.184 234.231 40.76C233.047 41.304 231.495 41.576 229.575 41.576ZM231.639 36.392C233.495 36.392 234.855 35.88 235.719 34.856C236.583 33.8 237.015 32.408 237.015 30.68V29.912C231.287 29.912 228.423 31.192 228.423 33.752C228.423 34.552 228.679 35.192 229.191 35.672C229.735 36.152 230.551 36.392 231.639 36.392Z" fill="#18233A"/>
<path d="M257.207 41.576C254.839 41.576 253.143 40.936 252.119 39.656C251.095 38.376 250.583 36.76 250.583 34.808V21.128H247.559V15.752H250.727L251.831 8.64797H257.159V15.752H261.527V21.128H257.159V34.136C257.159 35.512 257.847 36.2 259.223 36.2H261.527V40.808C260.983 41 260.295 41.176 259.463 41.336C258.663 41.496 257.911 41.576 257.207 41.576Z" fill="#18233A"/>
<path d="M272.232 41.576C270.28 41.576 268.488 41.064 266.856 40.04C265.224 39.016 264.408 37.16 264.408 34.472C264.408 31.24 265.736 28.952 268.392 27.608C271.048 26.232 274.808 25.544 279.672 25.544V23.768C279.672 22.648 279.416 21.784 278.904 21.176C278.424 20.568 277.496 20.264 276.12 20.264C274.648 20.264 273.592 20.488 272.952 20.936C272.344 21.384 272.04 21.912 272.04 22.52V23.24H265.704C265.672 23.048 265.656 22.696 265.656 22.184C265.656 20.072 266.584 18.376 268.44 17.096C270.328 15.816 272.824 15.176 275.928 15.176C279.384 15.176 281.96 15.88 283.656 17.288C285.384 18.696 286.248 20.728 286.248 23.384V34.52C286.248 35.096 286.408 35.528 286.728 35.816C287.048 36.072 287.448 36.2 287.928 36.2H289.272V40.808C288.248 41.32 286.984 41.576 285.48 41.576C284.168 41.576 283.064 41.288 282.168 40.712C281.304 40.136 280.712 39.32 280.392 38.264H280.104C279.176 39.352 278.104 40.184 276.888 40.76C275.704 41.304 274.152 41.576 272.232 41.576ZM274.296 36.392C276.152 36.392 277.512 35.88 278.376 34.856C279.24 33.8 279.672 32.408 279.672 30.68V29.912C273.944 29.912 271.08 31.192 271.08 33.752C271.08 34.552 271.336 35.192 271.848 35.672C272.392 36.152 273.208 36.392 274.296 36.392Z" fill="#18233A"/>
<path d="M24.3472 5.32559C24.3472 2.3268 21.8652 -0.363389 19.2601 1.12184L4.23992 9.68506C1.61625 11.1809 0 13.9452 0 16.9368V34.0632C0 37.0548 1.61625 39.8191 4.23992 41.3149L19.2601 49.8782C21.8838 51.3739 25.1162 51.3739 27.7399 49.8782L42.7601 41.3149C45.3838 39.8191 47 37.0548 47 34.0632V30.6625C47 27.3488 44.3137 24.6625 41 24.6625H29.4351C26.6251 24.6625 24.3472 22.4132 24.3472 19.6384V5.32559Z" fill="url(#paint0_linear)"/>
<circle cx="38.5" cy="10.5" r="5.5" fill="#52D4B4"/>
<path d="M299.96 19.4685C297.32 19.4685 296 18.0571 296 15.2343C296 13.8189 296.346 12.7613 297.038 12.0615C297.729 11.3538 298.704 11 299.96 11C300.652 11 301.272 11.1193 301.821 11.3578C302.377 11.5884 302.815 11.9462 303.133 12.4313C303.459 12.9084 303.622 13.4928 303.622 14.1846H301.844C301.844 13.6519 301.674 13.2344 301.332 12.9323C300.99 12.6221 300.544 12.4671 299.996 12.4671C299.248 12.4671 298.692 12.6897 298.326 13.135C297.96 13.5803 297.777 14.2204 297.777 15.0553V15.4132C297.777 17.1387 298.517 18.0014 299.996 18.0014C300.576 18.0014 301.037 17.8504 301.379 17.5482C301.729 17.246 301.904 16.8286 301.904 16.2958H303.622C303.622 16.9956 303.463 17.584 303.145 18.0611C302.826 18.5302 302.393 18.8841 301.844 19.1226C301.296 19.3532 300.668 19.4685 299.96 19.4685Z" fill="#18233A"/>
<path d="M304.906 11.1431H306.635V14.3874H310.19V11.1431H311.919V19.3254H310.19V15.8783H306.635V19.3254H304.906V11.1431Z" fill="#18233A"/>
<path d="M313.514 11.1431H315.243V19.3254H313.514V11.1431Z" fill="#18233A"/>
<path d="M316.833 11.1431H318.563V17.8225H322.976V19.3254H316.833V11.1431Z" fill="#18233A"/>
<path d="M324.125 11.1431H330.554V12.6102H325.855V14.4113H330.029V15.8783H325.855V17.8583H330.626V19.3254H324.125V11.1431Z" fill="#18233A"/>
<defs>
<linearGradient id="paint0_linear" x1="8.66036" y1="-1.71407" x2="22.5916" y2="70.5787" gradientUnits="userSpaceOnUse">
<stop stop-color="#61FD9F"/>
<stop offset="0.255208" stop-color="#43ADC7"/>
<stop offset="0.572917" stop-color="#3381DE"/>
<stop offset="1" stop-color="#FF1A88"/>
</linearGradient>
</defs>
</svg>
